<svg xmlns="http://www.w3.org/2000/svg" xmlns:xlink="http://www.w3.org/1999/xlink" width="500" zoomAndPan="magnify" viewBox="0 0 375 374.999991" height="500" preserveAspectRatio="xMidYMid meet" version="1.0"><defs><clipPath id="166b38fced"><path d="M 44 158 L 206 158 L 206 319.207031 L 44 319.207031 Z M 44 158 " clip-rule="nonzero"/></clipPath><clipPath id="5181e87a29"><path d="M 215 55.957031 L 331.183594 55.957031 L 331.183594 172 L 215 172 Z M 215 55.957031 " clip-rule="nonzero"/></clipPath></defs><g clip-path="url(#166b38fced)"><path fill="#424242" d="M 165.183594 216.519531 L 165.136719 216.429688 L 141 168.148438 C 137.941406 162.03125 132.035156 158.382812 125.199219 158.382812 C 118.363281 158.382812 112.457031 162.03125 109.398438 168.148438 L 85.25 216.453125 L 85.175781 216.601562 L 46.699219 293.570312 C 43.941406 299.089844 44.234375 305.515625 47.472656 310.761719 C 50.71875 316.007812 56.335938 319.140625 62.503906 319.140625 L 187.898438 319.140625 C 194.0625 319.140625 199.679688 316.007812 202.925781 310.761719 C 206.167969 305.515625 206.457031 299.089844 203.699219 293.570312 Z M 191.433594 303.660156 C 190.5625 305.066406 189.027344 305.921875 187.375 305.921875 L 63.023438 305.921875 C 61.371094 305.921875 59.835938 305.066406 58.964844 303.660156 C 58.097656 302.25 58.019531 300.496094 58.757812 299.015625 L 120.929688 174.640625 C 121.738281 173.023438 123.390625 172 125.199219 172 C 127.007812 172 128.660156 173.023438 129.46875 174.640625 L 191.640625 299.015625 C 192.378906 300.492188 192.300781 302.25 191.433594 303.660156 Z M 191.433594 303.660156 " fill-opacity="1" fill-rule="evenodd"/></g><path fill="#424242" d="M 70.75 296.375 L 179.652344 296.375 L 125.199219 187.449219 Z M 129.949219 279.292969 C 129.933594 279.449219 129.910156 279.605469 129.878906 279.757812 C 129.847656 279.910156 129.808594 280.0625 129.761719 280.210938 C 129.71875 280.359375 129.664062 280.507812 129.605469 280.652344 C 129.546875 280.796875 129.480469 280.9375 129.40625 281.074219 C 129.332031 281.210938 129.253906 281.347656 129.167969 281.476562 C 129.082031 281.605469 128.988281 281.730469 128.890625 281.851562 C 128.789062 281.972656 128.683594 282.089844 128.574219 282.199219 C 128.464844 282.308594 128.347656 282.417969 128.226562 282.515625 C 128.105469 282.613281 127.980469 282.707031 127.847656 282.796875 C 127.71875 282.878906 127.585938 282.960938 127.445312 283.035156 C 127.3125 283.105469 127.167969 283.171875 127.023438 283.234375 C 126.882812 283.292969 126.734375 283.347656 126.585938 283.390625 C 126.4375 283.4375 126.28125 283.476562 126.132812 283.503906 C 125.980469 283.535156 125.824219 283.558594 125.667969 283.574219 C 125.511719 283.589844 125.355469 283.597656 125.199219 283.597656 C 125.042969 283.597656 124.886719 283.589844 124.730469 283.574219 C 124.574219 283.558594 124.421875 283.535156 124.265625 283.503906 C 124.117188 283.476562 123.964844 283.4375 123.8125 283.390625 C 123.667969 283.347656 123.519531 283.292969 123.375 283.234375 C 123.230469 283.171875 123.089844 283.105469 122.953125 283.035156 C 122.816406 282.960938 122.679688 282.878906 122.550781 282.796875 C 122.417969 282.707031 122.292969 282.613281 122.171875 282.515625 C 122.050781 282.417969 121.933594 282.308594 121.824219 282.199219 C 121.714844 282.089844 121.609375 281.972656 121.507812 281.851562 C 121.410156 281.730469 121.316406 281.605469 121.234375 281.476562 C 121.144531 281.347656 121.066406 281.210938 120.992188 281.074219 C 120.921875 280.9375 120.851562 280.796875 120.792969 280.652344 C 120.734375 280.507812 120.679688 280.359375 120.636719 280.210938 C 120.589844 280.0625 120.550781 279.910156 120.519531 279.757812 C 120.492188 279.605469 120.464844 279.449219 120.449219 279.292969 C 120.433594 279.140625 120.425781 278.980469 120.425781 278.824219 C 120.425781 278.671875 120.433594 278.511719 120.449219 278.355469 C 120.464844 278.199219 120.488281 278.046875 120.519531 277.894531 C 120.550781 277.742188 120.589844 277.589844 120.636719 277.441406 C 120.679688 277.292969 120.734375 277.144531 120.792969 277 C 120.851562 276.855469 120.921875 276.714844 120.992188 276.578125 C 121.066406 276.441406 121.144531 276.304688 121.234375 276.175781 C 121.316406 276.046875 121.410156 275.917969 121.507812 275.796875 C 121.609375 275.675781 121.714844 275.558594 121.824219 275.449219 C 121.933594 275.339844 122.050781 275.234375 122.171875 275.136719 C 122.292969 275.039062 122.417969 274.945312 122.550781 274.859375 C 122.679688 274.769531 122.816406 274.691406 122.953125 274.617188 C 123.089844 274.546875 123.230469 274.480469 123.375 274.417969 C 123.515625 274.359375 123.667969 274.304688 123.8125 274.261719 C 123.964844 274.214844 124.117188 274.175781 124.265625 274.144531 C 124.421875 274.117188 124.574219 274.09375 124.730469 274.078125 C 125.042969 274.046875 125.359375 274.046875 125.667969 274.078125 C 125.824219 274.09375 125.980469 274.117188 126.132812 274.144531 C 126.28125 274.175781 126.4375 274.214844 126.585938 274.261719 C 126.734375 274.304688 126.882812 274.359375 127.023438 274.417969 C 127.167969 274.480469 127.3125 274.546875 127.445312 274.617188 C 127.585938 274.691406 127.71875 274.769531 127.847656 274.859375 C 127.980469 274.945312 128.105469 275.039062 128.226562 275.136719 C 128.347656 275.234375 128.464844 275.339844 128.574219 275.449219 C 128.683594 275.558594 128.789062 275.675781 128.890625 275.796875 C 128.988281 275.917969 129.082031 276.046875 129.167969 276.175781 C 129.253906 276.304688 129.332031 276.441406 129.40625 276.578125 C 129.480469 276.714844 129.546875 276.855469 129.605469 277 C 129.664062 277.144531 129.71875 277.292969 129.761719 277.441406 C 129.808594 277.589844 129.847656 277.742188 129.878906 277.894531 C 129.910156 278.046875 129.929688 278.203125 129.949219 278.355469 C 129.964844 278.511719 129.972656 278.671875 129.972656 278.824219 C 129.972656 278.980469 129.964844 279.140625 129.949219 279.292969 Z M 129.972656 227.597656 L 129.972656 256.058594 C 129.972656 258.695312 127.835938 260.832031 125.199219 260.832031 C 122.5625 260.832031 120.425781 258.695312 120.425781 256.058594 L 120.425781 227.597656 C 120.425781 224.964844 122.5625 222.824219 125.199219 222.824219 C 127.835938 222.824219 129.972656 224.964844 129.972656 227.597656 Z M 129.972656 227.597656 " fill-opacity="1" fill-rule="evenodd"/><g clip-path="url(#5181e87a29)"><path fill="#424242" d="M 273.34375 55.929688 C 241.460938 55.929688 215.523438 81.875 215.523438 113.765625 C 215.523438 115.511719 215.597656 117.238281 215.75 118.941406 C 215.753906 118.945312 215.753906 118.949219 215.753906 118.953125 C 215.757812 119.03125 215.765625 119.113281 215.773438 119.191406 C 218.515625 148.546875 243.289062 171.597656 273.34375 171.597656 C 305.226562 171.597656 331.167969 145.65625 331.167969 113.765625 C 331.167969 81.875 305.230469 55.929688 273.34375 55.929688 Z M 304.886719 145.3125 C 296.460938 153.738281 285.261719 158.378906 273.34375 158.378906 C 261.429688 158.378906 250.230469 153.738281 241.804688 145.3125 C 233.378906 136.886719 228.738281 125.683594 228.738281 113.765625 C 228.738281 101.847656 233.378906 90.644531 241.804688 82.21875 C 250.230469 73.789062 261.429688 69.148438 273.34375 69.148438 C 285.261719 69.148438 296.460938 73.789062 304.886719 82.21875 C 313.3125 90.644531 317.953125 101.847656 317.953125 113.765625 C 317.953125 125.683594 313.3125 136.886719 304.886719 145.3125 Z M 304.886719 145.3125 " fill-opacity="1" fill-rule="evenodd"/></g><path fill="#64b5f6" d="M 247.121094 175.851562 C 239.097656 172.457031 231.894531 167.601562 225.707031 161.410156 C 219.523438 155.226562 214.667969 148.019531 211.273438 139.996094 C 209.261719 135.242188 207.820312 130.320312 206.953125 125.277344 C 206.144531 124.789062 205.488281 124.066406 205.082031 123.183594 C 197.957031 107.644531 182.3125 97.605469 165.226562 97.605469 C 148.140625 97.605469 132.496094 107.644531 125.367188 123.183594 C 124.695312 124.644531 123.332031 125.671875 121.742188 125.910156 C 120.152344 126.152344 118.546875 125.574219 117.476562 124.375 C 112.613281 118.949219 105.660156 115.839844 98.386719 115.839844 C 84.269531 115.839844 72.777344 127.328125 72.777344 141.453125 C 72.777344 142.007812 72.800781 142.574219 72.839844 143.191406 C 72.980469 145.328125 71.679688 147.300781 69.65625 148.011719 C 56.988281 152.460938 48.476562 164.476562 48.476562 177.917969 C 48.476562 186.382812 51.773438 194.339844 57.757812 200.324219 C 63.238281 205.808594 70.375 209.035156 78.035156 209.539062 L 100.859375 163.878906 C 105.5 154.597656 114.828125 148.832031 125.199219 148.832031 C 135.570312 148.832031 144.898438 154.597656 149.539062 163.878906 L 172.398438 209.609375 L 250.292969 209.609375 C 266.855469 209.609375 280.492188 196.832031 281.863281 180.617188 C 279.054688 180.96875 276.214844 181.148438 273.34375 181.148438 C 264.253906 181.148438 255.429688 179.363281 247.121094 175.851562 Z M 247.121094 175.851562 " fill-opacity="1" fill-rule="evenodd"/><path fill="#64b5f6" d="M 273.34375 78.695312 C 254.011719 78.695312 238.285156 94.429688 238.285156 113.765625 C 238.285156 133.101562 254.011719 148.832031 273.34375 148.832031 C 292.675781 148.832031 308.40625 133.101562 308.40625 113.765625 C 308.40625 94.429688 292.679688 78.695312 273.34375 78.695312 Z M 288.789062 122.464844 C 290.65625 124.328125 290.65625 127.351562 288.789062 129.214844 C 287.859375 130.148438 286.640625 130.613281 285.417969 130.613281 C 284.195312 130.613281 282.972656 130.148438 282.042969 129.214844 L 273.34375 120.515625 L 264.648438 129.214844 C 263.714844 130.148438 262.496094 130.613281 261.273438 130.613281 C 260.054688 130.613281 258.832031 130.148438 257.902344 129.214844 C 256.039062 127.351562 256.039062 124.328125 257.902344 122.464844 L 266.597656 113.765625 L 257.902344 105.066406 C 256.039062 103.203125 256.039062 100.179688 257.902344 98.316406 C 259.765625 96.449219 262.785156 96.449219 264.648438 98.316406 L 273.347656 107.011719 L 282.042969 98.316406 C 283.90625 96.449219 286.929688 96.449219 288.792969 98.316406 C 290.65625 100.179688 290.65625 103.203125 288.792969 105.066406 L 280.09375 113.765625 Z M 288.789062 122.464844 " fill-opacity="1" fill-rule="evenodd"/></svg>