<svg xmlns="http://www.w3.org/2000/svg" xmlns:xlink="http://www.w3.org/1999/xlink" width="500" zoomAndPan="magnify" viewBox="0 0 375 374.999991" height="500" preserveAspectRatio="xMidYMid meet" version="1.0"><defs><clipPath id="b87c037e75"><path d="M 16.085938 90 L 95 90 L 95 229 L 16.085938 229 Z M 16.085938 90 " clip-rule="nonzero"/></clipPath><clipPath id="301a671c56"><path d="M 280 90 L 358.835938 90 L 358.835938 229 L 280 229 Z M 280 90 " clip-rule="nonzero"/></clipPath><clipPath id="320221164b"><path d="M 186 74.792969 L 200 74.792969 L 200 88 L 186 88 Z M 186 74.792969 " clip-rule="nonzero"/></clipPath><clipPath id="aaad82501a"><path d="M 16.085938 251 L 74 251 L 74 291 L 16.085938 291 Z M 16.085938 251 " clip-rule="nonzero"/></clipPath><clipPath id="47223c7e4a"><path d="M 16.085938 252 L 28 252 L 28 275 L 16.085938 275 Z M 16.085938 252 " clip-rule="nonzero"/></clipPath></defs><g clip-path="url(#b87c037e75)"><path fill="#d3e8f9" d="M 82.417969 228.976562 L 66.285156 228.976562 L 66.285156 177.261719 L 22.695312 177.261719 L 16.089844 164.539062 L 67.75 90.933594 L 82.417969 95.578125 L 82.417969 161.101562 L 94.25 161.101562 L 94.25 177.261719 L 82.417969 177.261719 Z M 38.226562 161.101562 L 66.285156 161.101562 L 66.285156 121.121094 Z M 38.226562 161.101562 " fill-opacity="1" fill-rule="nonzero"/></g><g clip-path="url(#301a671c56)"><path fill="#d3e8f9" d="M 346.886719 228.976562 L 330.753906 228.976562 L 330.753906 177.261719 L 287.242188 177.261719 L 280.636719 164.539062 L 332.21875 90.933594 L 346.886719 95.578125 L 346.886719 161.101562 L 358.828125 161.101562 L 358.828125 177.261719 L 346.886719 177.261719 Z M 302.761719 161.101562 L 330.753906 161.101562 L 330.753906 121.152344 Z M 302.761719 161.101562 " fill-opacity="1" fill-rule="nonzero"/></g><path fill="#d3e8f9" d="M 190.703125 237 C 180.636719 237 170.859375 235.019531 161.652344 231.117188 C 152.769531 227.347656 144.789062 221.960938 137.9375 215.097656 C 131.085938 208.234375 125.707031 200.242188 121.945312 191.34375 C 118.050781 182.121094 116.070312 172.328125 116.070312 162.242188 C 116.070312 152.160156 118.050781 142.367188 121.945312 133.144531 C 125.707031 124.246094 131.085938 116.25 137.9375 109.386719 C 144.789062 102.523438 152.769531 97.136719 161.652344 93.367188 C 170.859375 89.46875 180.636719 87.484375 190.703125 87.484375 C 200.769531 87.484375 210.546875 89.46875 219.75 93.367188 C 228.636719 97.136719 236.617188 102.523438 243.464844 109.386719 C 250.316406 116.25 255.695312 124.246094 259.460938 133.144531 C 263.351562 142.367188 265.332031 152.160156 265.332031 162.242188 C 265.332031 172.328125 263.351562 182.121094 259.460938 191.34375 C 255.695312 200.242188 250.316406 208.234375 243.464844 215.097656 C 236.617188 221.960938 228.636719 227.347656 219.75 231.117188 C 210.546875 235.03125 200.769531 237 190.703125 237 Z M 190.703125 237 " fill-opacity="1" fill-rule="nonzero"/><path fill="#d3e8f9" d="M 190.703125 103.65625 C 158.445312 103.65625 132.203125 129.945312 132.203125 162.253906 C 132.203125 194.5625 158.445312 220.851562 190.703125 220.851562 C 222.957031 220.851562 249.199219 194.5625 249.199219 162.253906 C 249.199219 129.945312 222.957031 103.65625 190.703125 103.65625 Z M 190.703125 103.65625 " fill-opacity="1" fill-rule="nonzero"/><path fill="#0a1324" d="M 335.175781 266.5625 C 335.175781 266.5625 327.9375 275.183594 335.175781 282.132812 C 335.175781 282.132812 324.398438 283.671875 324.398438 273.351562 C 324.398438 263.03125 335.175781 266.5625 335.175781 266.5625 Z M 335.175781 266.5625 " fill-opacity="1" fill-rule="nonzero"/><path fill="#0a1324" d="M 206.929688 202.386719 C 207.535156 197.742188 198.003906 193.359375 198.003906 193.359375 C 189.832031 189.058594 181 191.472656 181 191.472656 C 167.675781 194.207031 169.050781 200.707031 169.050781 200.707031 Z M 206.929688 202.386719 " fill-opacity="1" fill-rule="nonzero"/><path fill="#1f3e76" d="M 318.023438 268.429688 L 291.304688 266.476562 L 254.480469 252.0625 C 242.285156 244.328125 228.441406 213.277344 228.441406 213.277344 L 223.300781 214.539062 L 222.171875 239.21875 L 226.871094 244.609375 C 226.871094 244.609375 230.648438 252.191406 241.457031 260.949219 L 290.316406 282.089844 L 318.675781 282.132812 " fill-opacity="1" fill-rule="nonzero"/><path fill="#0a1324" d="M 269.140625 257.804688 L 254.46875 252.0625 C 253.070312 251.167969 251.640625 249.972656 250.222656 248.550781 C 248.316406 259.390625 238.347656 258.300781 238.347656 258.300781 C 239.316406 259.164062 240.347656 260.058594 241.457031 260.949219 L 264.71875 271.011719 Z M 269.140625 257.804688 " fill-opacity="1" fill-rule="nonzero"/><path fill="#87b4de" d="M 226.109375 260.734375 L 228.453125 213.277344 C 228.453125 213.277344 225.496094 206.222656 206.929688 202.386719 C 166.105469 193.949219 143.765625 208.816406 143.765625 208.816406 L 142.636719 247.808594 C 142.636719 247.808594 142.691406 263.429688 142.765625 276.066406 C 142.839844 288.703125 165.070312 286.722656 165.070312 286.722656 L 215.332031 287.496094 L 226.097656 286.722656 L 226.097656 260.734375 Z M 226.109375 260.734375 " fill-opacity="1" fill-rule="nonzero"/><path fill="#1f3e76" d="M 169.363281 208.914062 C 169.363281 208.914062 202.039062 201.285156 223.300781 214.550781 L 222.171875 239.230469 L 171.742188 238.003906 Z M 169.363281 208.914062 " fill-opacity="1" fill-rule="nonzero"/><path fill="#ffffff" d="M 203.199219 224.558594 L 203.199219 220.25 L 193.519531 220.25 L 193.519531 214.863281 L 203.199219 214.863281 L 203.199219 210.550781 L 191.402344 210.550781 L 189.21875 212.726562 L 189.21875 232.140625 L 191.402344 234.253906 L 203.199219 234.253906 L 203.199219 229.945312 L 193.519531 229.945312 L 193.519531 224.558594 Z M 203.199219 224.558594 " fill-opacity="1" fill-rule="nonzero"/><path fill="#87b4de" d="M 155.898438 125.367188 L 148.605469 158.355469 C 148.164062 160.335938 148.445312 162.40625 149.390625 164.203125 L 160.542969 185.417969 C 161.867188 187.925781 164.351562 189.628906 167.167969 189.941406 L 230.183594 196.945312 C 234.207031 197.386719 237.992188 194.953125 239.25 191.105469 L 251.007812 155.242188 C 251.972656 152.277344 251.265625 149.023438 249.144531 146.738281 L 229.894531 126 C 228.429688 124.429688 226.429688 123.457031 224.289062 123.296875 L 164.910156 118.6875 C 160.664062 118.351562 156.824219 121.207031 155.898438 125.367188 Z M 155.898438 125.367188 " fill-opacity="1" fill-rule="nonzero"/><path fill="#1f3e76" d="M 251.007812 155.21875 L 239.25 191.09375 C 237.992188 194.941406 234.207031 197.386719 230.183594 196.933594 L 167.167969 189.929688 C 165.945312 189.792969 164.792969 189.402344 163.761719 188.789062 L 173.570312 147.796875 C 174.601562 143.476562 178.753906 140.675781 183.128906 141.320312 L 251.351562 151.414062 C 251.523438 152.6875 251.414062 153.980469 251.007812 155.21875 Z M 251.007812 155.21875 " fill-opacity="1" fill-rule="nonzero"/><path stroke-linecap="round" transform="matrix(0.107552, 0, 0, 0.107736, -27.068962, 28.370623)" fill="none" stroke-linejoin="round" d="M 1859.412141 997.596392 L 1740.392399 860.905182 " stroke="#0a1324" stroke-width="10" stroke-opacity="1" stroke-miterlimit="10"/><path fill="#ffffff" d="M 184.453125 169.96875 L 201.683594 172.996094 C 201.683594 172.996094 198.035156 181.195312 190.367188 179.554688 C 182.699219 177.917969 184.453125 169.96875 184.453125 169.96875 Z M 184.453125 169.96875 " fill-opacity="1" fill-rule="nonzero"/><path fill="#ffffff" d="M 215.40625 174.871094 L 232.863281 177.683594 C 232.863281 177.683594 230.980469 184.71875 221.417969 183.585938 C 211.867188 182.453125 215.40625 174.871094 215.40625 174.871094 Z M 215.40625 174.871094 " fill-opacity="1" fill-rule="nonzero"/><path fill="#1f3e76" d="M 254.792969 289.535156 L 226.066406 286.730469 C 226.066406 286.730469 219.75 283.640625 219.75 273.902344 C 219.75 264.160156 226.066406 260.746094 226.066406 260.746094 L 252.167969 260.84375 " fill-opacity="1" fill-rule="nonzero"/><path fill="#3279af" d="M 276.980469 231.625 C 264.351562 228.835938 251.113281 248.464844 251.113281 272.359375 C 251.113281 296.257812 263.019531 297.679688 278.828125 297.679688 " fill-opacity="1" fill-rule="nonzero"/><path fill="#0a1324" d="M 276.980469 231.625 C 291.359375 232.898438 299.457031 294.8125 278.839844 297.679688 C 258.222656 300.542969 259.824219 230.105469 276.980469 231.625 Z M 276.980469 231.625 " fill-opacity="1" fill-rule="nonzero"/><path stroke-linecap="round" transform="matrix(0.107552, 0, 0, 0.107736, -27.068962, 28.370623)" fill="none" stroke-linejoin="round" d="M 2383.687387 2157.114925 C 2383.687387 2157.114925 2323.505601 2296.090364 2420.515589 2405.298301 " stroke="#0a1324" stroke-width="10" stroke-opacity="1" stroke-miterlimit="10"/><path stroke-linecap="round" transform="matrix(0.107552, 0, 0, 0.107736, -27.068962, 28.370623)" fill="none" stroke-linejoin="round" d="M 2471.217926 2157.695047 C 2471.217926 2157.695047 2443.397016 2325.096457 2547.198793 2418.713619 " stroke="#0a1324" stroke-width="10" stroke-opacity="1" stroke-miterlimit="10"/><path fill="#1f3e76" d="M 68.640625 262.664062 C 68.640625 262.664062 93.871094 265.207031 110.308594 254.972656 C 127.460938 244.285156 143.765625 208.816406 143.765625 208.816406 C 143.765625 208.816406 150.003906 207.707031 153.746094 217.242188 C 157.488281 226.765625 152.488281 233.984375 152.488281 233.984375 C 152.488281 233.984375 134.171875 263.191406 116.414062 273.425781 C 98.660156 283.660156 69.566406 278.5 69.566406 278.5 " fill-opacity="1" fill-rule="nonzero"/><path stroke-linecap="round" transform="matrix(0.107552, 0, 0, 0.107736, -27.068962, 28.370623)" fill="none" stroke-linejoin="round" d="M 1547.098817 1756.685823 C 1547.098817 1756.685823 1596.312045 1779.781924 1611.203133 1993.411793 " stroke="#0a1324" stroke-width="10" stroke-opacity="1" stroke-miterlimit="10"/><path stroke-linecap="round" transform="matrix(0.107552, 0, 0, 0.107736, -27.068962, 28.370623)" fill="none" stroke-linejoin="round" d="M 1468.212372 1890.802742 C 1468.212372 1890.802742 1525.706498 1954.906206 1505.294812 2125.498285 " stroke="#0a1324" stroke-width="10" stroke-opacity="1" stroke-miterlimit="10"/><path stroke-linecap="round" transform="matrix(0.107552, 0, 0, 0.107736, -27.068962, 28.370623)" fill="none" stroke-linejoin="round" d="M 1356.093377 2036.812158 C 1356.093377 2036.812158 1402.401028 2150.588555 1350.899656 2264.401209 " stroke="#0a1324" stroke-width="10" stroke-opacity="1" stroke-miterlimit="10"/><path stroke-linecap="round" transform="matrix(0.107552, 0, 0, 0.107736, -27.068962, 28.370623)" fill="none" stroke-linejoin="round" d="M 1207.509378 2137.209495 C 1207.509378 2137.209495 1217.89682 2268.715865 1131.092674 2330.607614 " stroke="#0a1324" stroke-width="10" stroke-opacity="1" stroke-miterlimit="10"/><path stroke-linecap="round" transform="matrix(0.107552, 0, 0, 0.107736, -27.068962, 28.370623)" fill="none" stroke-linejoin="round" d="M 1029.215843 2174.409808 C 1029.215843 2174.409808 1027.181938 2283.799033 967.109111 2327.416944 " stroke="#0a1324" stroke-width="10" stroke-opacity="1" stroke-miterlimit="10"/><path fill="#0a1324" d="M 342.542969 282.089844 L 352.160156 281.011719 L 352.160156 286.839844 L 342.359375 291.289062 " fill-opacity="1" fill-rule="nonzero"/><path fill="#0a1324" d="M 342.359375 257.351562 L 352.160156 260.972656 L 352.160156 266.46875 L 342.542969 266.476562 " fill-opacity="1" fill-rule="nonzero"/><path fill="#3279af" d="M 326.109375 274.308594 C 326.226562 284.15625 342.554688 282.089844 342.554688 282.089844 L 342.371094 291.289062 C 330.046875 290.878906 317.085938 287.894531 316.890625 275.128906 C 316.699219 262.363281 327.777344 256.921875 342.394531 257.351562 L 342.597656 266.476562 C 342.585938 266.476562 325.992188 264.464844 326.109375 274.308594 Z M 326.109375 274.308594 " fill-opacity="1" fill-rule="nonzero"/><path stroke-linecap="round" transform="matrix(0.107552, 0, 0, 0.107736, -27.068962, 28.370623)" fill="none" stroke-linejoin="round" d="M 2438.312255 1841.093551 C 2438.312255 1841.093551 2458.288104 2001.714787 2406.387215 2071.29315 " stroke="#0a1324" stroke-width="10" stroke-opacity="1" stroke-miterlimit="10"/><path stroke-linecap="round" transform="matrix(0.107552, 0, 0, 0.107736, -27.068962, 28.370623)" fill="none" stroke-linejoin="round" d="M 2534.813767 1993.411793 C 2534.813767 1993.411793 2570.806615 2096.492193 2534.813767 2157.695047 " stroke="#0a1324" stroke-width="10" stroke-opacity="1" stroke-miterlimit="10"/><path stroke-linecap="round" transform="matrix(0.107552, 0, 0, 0.107736, -27.068962, 28.370623)" fill="none" stroke-linejoin="round" d="M 3132.709097 2222.704951 C 3132.709097 2222.704951 3110.989901 2312.913898 3173.205592 2355.407823 " stroke="#0a1324" stroke-width="10" stroke-opacity="1" stroke-miterlimit="10"/><path stroke-linecap="round" transform="matrix(0.107552, 0, 0, 0.107736, -27.068962, 28.370623)" fill="none" stroke-linejoin="round" d="M 3011.001695 2213.785578 C 3011.001695 2213.785578 2989.500417 2309.505682 3048.883169 2355.008989 " stroke="#0a1324" stroke-width="10" stroke-opacity="1" stroke-miterlimit="10"/><path fill="#3279af" d="M 192.980469 130.644531 C 192.980469 130.644531 193.789062 116.886719 210.535156 118.652344 C 227.289062 120.429688 226.367188 134.535156 226.367188 134.535156 C 226.367188 134.535156 224.613281 137.9375 213.449219 136.96875 C 202.285156 136 192.980469 130.644531 192.980469 130.644531 Z M 192.980469 130.644531 " fill-opacity="1" fill-rule="nonzero"/><path stroke-linecap="round" transform="matrix(0.107552, 0, 0, 0.107736, -27.068962, 28.370623)" fill="none" stroke-linejoin="round" d="M 2173.214574 880.484294 L 2045.986574 497.313817 " stroke="#0a1324" stroke-width="10" stroke-opacity="1" stroke-miterlimit="10"/><g clip-path="url(#320221164b)"><path fill="#3279af" d="M 199.402344 81.226562 C 199.402344 81.648438 199.363281 82.066406 199.28125 82.480469 C 199.195312 82.894531 199.074219 83.296875 198.914062 83.6875 C 198.753906 84.078125 198.554688 84.449219 198.320312 84.800781 C 198.085938 85.148438 197.820312 85.476562 197.523438 85.773438 C 197.222656 86.074219 196.898438 86.339844 196.550781 86.574219 C 196.199219 86.808594 195.828125 87.007812 195.4375 87.167969 C 195.050781 87.328125 194.648438 87.453125 194.234375 87.535156 C 193.820312 87.617188 193.402344 87.65625 192.980469 87.65625 C 192.558594 87.65625 192.144531 87.617188 191.730469 87.535156 C 191.316406 87.453125 190.914062 87.328125 190.523438 87.167969 C 190.136719 87.007812 189.765625 86.808594 189.414062 86.574219 C 189.0625 86.339844 188.738281 86.074219 188.441406 85.773438 C 188.144531 85.476562 187.878906 85.148438 187.644531 84.800781 C 187.410156 84.449219 187.210938 84.078125 187.050781 83.6875 C 186.886719 83.296875 186.765625 82.894531 186.683594 82.480469 C 186.601562 82.066406 186.5625 81.648438 186.5625 81.226562 C 186.5625 80.804688 186.601562 80.386719 186.683594 79.972656 C 186.765625 79.558594 186.886719 79.15625 187.050781 78.765625 C 187.210938 78.375 187.410156 78.003906 187.644531 77.652344 C 187.878906 77.300781 188.144531 76.976562 188.441406 76.679688 C 188.738281 76.378906 189.0625 76.113281 189.414062 75.878906 C 189.765625 75.644531 190.136719 75.445312 190.523438 75.285156 C 190.914062 75.121094 191.316406 75 191.730469 74.917969 C 192.144531 74.835938 192.558594 74.792969 192.980469 74.792969 C 193.402344 74.792969 193.820312 74.835938 194.234375 74.917969 C 194.648438 75 195.050781 75.121094 195.4375 75.285156 C 195.828125 75.445312 196.199219 75.644531 196.550781 75.878906 C 196.898438 76.113281 197.222656 76.378906 197.523438 76.679688 C 197.820312 76.976562 198.085938 77.300781 198.320312 77.652344 C 198.554688 78.003906 198.753906 78.375 198.914062 78.765625 C 199.074219 79.15625 199.195312 79.558594 199.28125 79.972656 C 199.363281 80.386719 199.402344 80.804688 199.402344 81.226562 Z M 199.402344 81.226562 " fill-opacity="1" fill-rule="nonzero"/></g><path stroke-linecap="round" transform="matrix(0.107552, 0, 0, 0.107736, -27.068962, 28.370623)" fill="none" stroke-linejoin="round" d="M 2248.505366 895.712493 L 2385.793931 701.589221 L 2577.089928 880.484294 " stroke="#0a1324" stroke-width="10" stroke-opacity="1" stroke-miterlimit="10"/><path fill="#3279af" d="M 257.804688 124.859375 C 257.804688 125.28125 257.761719 125.699219 257.679688 126.113281 C 257.597656 126.527344 257.476562 126.929688 257.316406 127.320312 C 257.152344 127.710938 256.957031 128.082031 256.722656 128.433594 C 256.488281 128.785156 256.222656 129.109375 255.921875 129.40625 C 255.625 129.707031 255.300781 129.972656 254.949219 130.207031 C 254.597656 130.441406 254.230469 130.640625 253.839844 130.800781 C 253.449219 130.960938 253.046875 131.085938 252.636719 131.167969 C 252.222656 131.25 251.804688 131.289062 251.382812 131.289062 C 250.960938 131.289062 250.542969 131.25 250.128906 131.167969 C 249.714844 131.085938 249.316406 130.960938 248.925781 130.800781 C 248.535156 130.640625 248.164062 130.441406 247.816406 130.207031 C 247.464844 129.972656 247.140625 129.707031 246.84375 129.40625 C 246.542969 129.109375 246.277344 128.785156 246.042969 128.433594 C 245.808594 128.082031 245.613281 127.710938 245.449219 127.320312 C 245.289062 126.929688 245.167969 126.527344 245.085938 126.113281 C 245.003906 125.699219 244.960938 125.28125 244.960938 124.859375 C 244.960938 124.4375 245.003906 124.019531 245.085938 123.605469 C 245.167969 123.191406 245.289062 122.789062 245.449219 122.398438 C 245.613281 122.007812 245.808594 121.636719 246.042969 121.285156 C 246.277344 120.933594 246.542969 120.609375 246.84375 120.3125 C 247.140625 120.011719 247.464844 119.746094 247.816406 119.511719 C 248.164062 119.277344 248.535156 119.078125 248.925781 118.917969 C 249.316406 118.753906 249.714844 118.632812 250.128906 118.550781 C 250.542969 118.46875 250.960938 118.425781 251.382812 118.425781 C 251.804688 118.425781 252.222656 118.46875 252.636719 118.550781 C 253.046875 118.632812 253.449219 118.753906 253.839844 118.917969 C 254.230469 119.078125 254.597656 119.277344 254.949219 119.511719 C 255.300781 119.746094 255.625 120.011719 255.921875 120.3125 C 256.222656 120.609375 256.488281 120.933594 256.722656 121.285156 C 256.957031 121.636719 257.152344 122.007812 257.316406 122.398438 C 257.476562 122.789062 257.597656 123.191406 257.679688 123.605469 C 257.761719 124.019531 257.804688 124.4375 257.804688 124.859375 Z M 257.804688 124.859375 " fill-opacity="1" fill-rule="nonzero"/><g clip-path="url(#aaad82501a)"><path fill="#0a1324" d="M 70.621094 279.222656 C 67.222656 289.757812 46.25 290.71875 46.25 290.71875 L 35.96875 280.871094 L 38.3125 271.089844 L 24.964844 274.398438 L 16.757812 268.429688 L 18.488281 252.957031 C 18.488281 252.957031 46.421875 247.828125 61.628906 254.390625 C 76.859375 260.960938 74.019531 268.699219 70.621094 279.222656 Z M 70.621094 279.222656 " fill-opacity="1" fill-rule="nonzero"/></g><path fill="#3279af" d="M 52.230469 271.917969 L 39.96875 264.214844 C 39.96875 264.214844 65.296875 264.109375 56.464844 258.6875 C 47.636719 253.269531 27.167969 260.304688 27.167969 260.304688 L 18.488281 252.957031 C 18.488281 252.957031 46.421875 247.828125 61.628906 254.390625 C 65.964844 256.265625 68.835938 258.226562 70.640625 260.328125 C 76.300781 268.785156 52.230469 271.917969 52.230469 271.917969 Z M 52.230469 271.917969 " fill-opacity="1" fill-rule="nonzero"/><path fill="#87b4de" d="M 52.230469 271.917969 L 46.25 290.71875 L 35.976562 280.871094 L 39.96875 264.214844 Z M 52.230469 271.917969 " fill-opacity="1" fill-rule="nonzero"/><g clip-path="url(#47223c7e4a)"><path fill="#87b4de" d="M 27.179688 260.304688 L 24.964844 274.398438 L 16.769531 268.429688 L 18.5 252.957031 Z M 27.179688 260.304688 " fill-opacity="1" fill-rule="nonzero"/></g><path fill="#1f3e76" d="M 193.808594 289.535156 L 165.082031 286.730469 C 165.082031 286.730469 158.769531 283.640625 158.769531 273.902344 C 158.769531 264.160156 165.082031 260.746094 165.082031 260.746094 L 191.1875 260.84375 " fill-opacity="1" fill-rule="nonzero"/><path fill="#3279af" d="M 215.996094 231.625 C 203.371094 228.835938 190.132812 248.464844 190.132812 272.359375 C 190.132812 296.257812 202.039062 297.679688 217.847656 297.679688 " fill-opacity="1" fill-rule="nonzero"/><path fill="#0a1324" d="M 215.996094 231.625 C 230.378906 232.898438 238.476562 294.8125 217.859375 297.679688 C 197.242188 300.542969 198.84375 230.105469 215.996094 231.625 Z M 215.996094 231.625 " fill-opacity="1" fill-rule="nonzero"/><path stroke-linecap="round" transform="matrix(0.107552, 0, 0, 0.107736, -27.068962, 28.370623)" fill="none" stroke-linejoin="round" d="M 1816.700143 2157.114925 C 1816.700143 2157.114925 1756.482037 2296.090364 1853.492026 2405.298301 " stroke="#0a1324" stroke-width="10" stroke-opacity="1" stroke-miterlimit="10"/><path stroke-linecap="round" transform="matrix(0.107552, 0, 0, 0.107736, -27.068962, 28.370623)" fill="none" stroke-linejoin="round" d="M 1904.194363 2157.695047 C 1904.194363 2157.695047 1876.409773 2325.096457 1980.21155 2418.713619 " stroke="#0a1324" stroke-width="10" stroke-opacity="1" stroke-miterlimit="10"/></svg>